<?xml version="1.0" standalone="no"?>
<!DOCTYPE svg PUBLIC "-//W3C//DTD SVG 20010904//EN"
 "http://www.w3.org/TR/2001/REC-SVG-20010904/DTD/svg10.dtd">
<svg version="1.0" xmlns="http://www.w3.org/2000/svg"
 width="800.000000pt" height="800.000000pt" viewBox="0 0 800.000000 800.000000"
 preserveAspectRatio="xMidYMid meet">

<g transform="translate(0.000000,800.000000) scale(0.100000,-0.100000)"
fill="#000000" stroke="none">
<path d="M3901 7429 c-17 -29 -829 -1433 -1804 -3119 l-1773 -3065 484 -3
c266 -1 700 -1 965 0 l481 3 -364 313 c-201 172 -369 319 -373 325 -6 8 429
768 1203 2107 667 1152 1213 2096 1214 2097 2 2 2211 -3815 2279 -3937 14 -25
46 -81 71 -125 l46 -80 -2030 -5 -2030 -5 600 -600 600 -600 0 253 0 252 2035
0 c1119 0 2035 3 2035 6 0 7 -24 48 -2054 3560 -839 1452 -1533 2649 -1540
2659 -13 18 -16 15 -45 -36z"/>
<path d="M3374 3947 l-541 -932 544 -3 c300 -1 787 -1 1082 0 l538 3 -534 920
c-294 506 -537 925 -541 932 -5 7 -227 -367 -548 -920z"/>
</g>
</svg>
