<?xml version="1.0"?>
<!DOCTYPE svg PUBLIC "-//W3C//DTD SVG 20010904//EN">
<svg version="1.0" xmlns="http://www.w3.org/2000/svg" role="img"
 width="1000.000000pt" height="1000.000000pt" viewBox="0 0 1000.000000 1000.000000"
 preserveAspectRatio="xMidYMid meet">

<g transform="translate(0.000000,1000.000000) scale(0.100000,-0.100000)"
fill="#000000" stroke="none">
<path d="M5714 9835 c3 -27 11 -89 16 -137 28 -227 -39 -473 -188 -698 -77
-115 -318 -355 -507 -505 -527 -417 -628 -509 -766 -692 -125 -166 -162 -312
-125 -490 50 -237 224 -483 609 -859 213 -209 273 -261 260 -227 -15 41 -102
178 -223 353 -70 102 -153 230 -183 285 -175 314 -162 587 40 873 73 103 222
251 397 395 357 293 581 547 717 814 105 206 143 430 104 618 -23 111 -75 228
-127 287 l-29 33 5 -50z"/>
<path d="M6320 8456 c-296 -102 -528 -209 -726 -337 -245 -157 -431 -352 -505
-529 -118 -281 -51 -549 221 -890 93 -117 126 -179 141 -270 22 -119 -21 -264
-109 -377 -56 -70 -59 -78 -31 -63 101 55 262 191 342 290 115 143 162 285
139 420 -16 92 -42 142 -172 330 -121 174 -163 252 -187 343 -32 125 2 264 95
389 129 174 423 404 827 648 66 40 129 79 140 86 19 14 19 14 0 14 -11 -1 -90
-25 -175 -54z"/>
<path d="M6865 6240 c-108 -13 -202 -48 -239 -89 -19 -21 -19 -21 5 -21 13 0
49 7 79 15 137 37 300 -5 404 -103 142 -135 156 -346 36 -547 -45 -76 -185
-223 -280 -295 -67 -50 -227 -160 -234 -160 -2 0 -41 -22 -86 -48 -90 -52
-115 -79 -61 -67 55 12 233 72 326 110 635 258 886 730 556 1048 -130 126
-309 182 -506 157z"/>
<path d="M4035 6173 c-132 -11 -351 -59 -516 -113 -247 -81 -416 -168 -450
-232 -39 -72 166 -154 493 -197 286 -37 458 -46 888 -45 631 1 1103 44 1545
140 132 29 160 38 210 69 28 18 88 51 134 75 46 24 79 46 72 48 -6 2 -75 -6
-154 -18 -78 -11 -169 -25 -202 -30 -547 -82 -1458 -135 -1920 -111 -305 16
-442 35 -537 77 -42 19 -51 34 -38 68 9 25 90 78 165 108 22 8 58 23 80 32 22
9 83 29 135 45 52 16 138 42 190 59 l95 30 -75 -1 c-41 0 -93 -2 -115 -4z"/>
<path d="M3835 5360 c-102 -45 -179 -99 -212 -149 -29 -42 -29 -60 0 -101 71
-105 273 -174 662 -227 186 -25 744 -25 970 0 284 31 573 81 775 133 151 39
163 44 149 60 -6 8 -16 14 -22 14 -16 0 -145 78 -192 115 l-40 32 -75 -13
c-449 -80 -720 -107 -1075 -107 -249 1 -605 24 -731 48 -80 15 -148 46 -158
70 -15 41 3 105 38 134 17 14 21 31 9 31 -5 0 -48 -18 -98 -40z"/>
<path d="M4010 4630 c-91 -36 -168 -92 -195 -143 l-20 -37 24 -45 c63 -119
291 -214 656 -272 173 -28 680 -25 869 5 161 26 332 63 443 96 107 33 276 95
287 106 5 5 -9 16 -35 26 -24 10 -108 50 -186 89 l-142 72 -78 -13 c-356 -63
-651 -90 -868 -80 -400 19 -629 54 -687 104 -24 20 -23 65 2 87 20 18 26 35
13 35 -5 -1 -42 -14 -83 -30z"/>
<path d="M3263 4165 c-296 -48 -625 -194 -714 -318 -40 -56 -38 -82 14 -132
61 -58 153 -89 357 -120 338 -50 552 -76 835 -99 283 -24 341 -27 658 -35 909
-25 1810 67 2357 241 283 90 450 198 450 290 0 19 -13 41 -40 68 -22 22 -44
40 -49 40 -6 0 -7 -23 -4 -53 5 -49 3 -56 -26 -89 -119 -135 -651 -236 -1551
-295 -337 -21 -1202 -24 -1485 -5 -472 33 -823 88 -1004 159 -91 35 -104 46
-104 84 0 23 8 39 29 56 58 48 221 114 359 146 60 14 200 36 238 37 7 1 -1 8
-18 17 -40 22 -192 26 -302 8z"/>
<path d="M7465 3715 c-200 -169 -777 -327 -1495 -410 -778 -89 -1850 -80
-2467 21 -45 7 -42 -12 5 -32 57 -24 254 -71 372 -89 387 -59 1005 -85 1547
-67 898 32 1526 146 1852 337 116 68 238 204 229 255 -3 16 -8 14 -43 -15z"/>
<path d="M2717 2694 c-4 -4 -7 -419 -7 -923 0 -504 -5 -974 -10 -1045 -11
-147 -29 -221 -71 -287 -36 -57 -126 -144 -196 -188 -30 -20 -50 -39 -46 -45
15 -25 146 -176 152 -176 15 0 171 89 220 124 66 48 155 146 191 209 48 83 78
191 90 328 7 84 10 429 8 1064 l-3 940 -161 3 c-88 1 -163 -1 -167 -4z"/>
<path d="M3725 2154 c-140 -23 -365 -97 -365 -120 0 -3 9 -47 21 -96 19 -83
23 -89 43 -85 11 3 55 15 96 27 116 34 226 50 332 50 171 0 251 -33 297 -125
21 -43 25 -67 29 -167 l4 -118 -123 0 c-466 -1 -736 -163 -780 -468 -9 -65 1
-168 22 -232 42 -122 154 -216 294 -246 190 -41 384 3 550 125 77 56 78 56 89
-24 13 -91 2 -85 142 -85 l124 0 0 583 c0 378 -4 604 -11 642 -32 171 -167
300 -358 340 -89 19 -294 18 -406 -1z m455 -1026 l-1 -183 -42 -32 c-55 -41
-151 -89 -210 -104 -64 -16 -173 -8 -222 16 -22 11 -52 38 -68 61 -24 34 -30
54 -34 120 -6 95 7 152 48 198 63 73 178 104 387 105 l142 1 0 -182z"/>
<path d="M6615 2154 c-101 -16 -155 -32 -297 -84 -47 -17 -58 -26 -58 -43 1
-28 34 -164 42 -172 3 -3 50 7 104 23 135 40 249 55 379 50 157 -6 222 -38
266 -133 15 -32 19 -64 19 -157 l0 -118 -114 0 c-205 0 -363 -30 -496 -93
-223 -107 -330 -323 -275 -555 20 -84 48 -136 103 -191 89 -89 214 -127 384
-119 147 7 259 51 393 154 26 19 49 33 51 31 3 -2 10 -37 17 -78 l12 -74 125
0 125 0 3 560 c2 391 0 583 -9 635 -30 198 -160 325 -377 369 -71 15 -297 12
-397 -5z m455 -1028 l0 -184 -47 -35 c-129 -93 -269 -129 -385 -97 -105 29
-161 144 -138 283 25 154 145 214 433 216 l137 1 0 -184z"/>
<path d="M4695 2140 c-8 -12 26 -132 132 -465 14 -44 60 -195 103 -335 43
-140 97 -316 120 -390 23 -74 57 -186 76 -247 l35 -113 198 0 198 0 41 88 c85
184 226 571 281 772 78 284 166 675 155 692 -3 4 -77 8 -164 8 -182 0 -173 5
-185 -95 -7 -62 -46 -278 -64 -356 -55 -240 -133 -517 -204 -723 l-23 -69 -28
124 c-27 118 -66 249 -207 704 -34 110 -76 247 -94 305 l-33 105 -165 3 c-109
2 -168 -1 -172 -8z"/>
<path d="M7425 2130 c3 -5 12 -10 20 -10 10 0 15 -15 17 -50 4 -67 22 -69 26
-2 2 36 7 52 17 52 8 0 17 5 20 10 4 6 -15 10 -50 10 -35 0 -54 -4 -50 -10z"/>
<path d="M7542 2078 c3 -73 21 -84 28 -18 l5 45 13 -42 c18 -59 30 -62 50 -11
l17 43 5 -38 c8 -60 25 -48 28 21 3 57 1 62 -18 62 -15 0 -26 -12 -39 -42
l-18 -43 -13 43 c-11 34 -18 42 -37 42 -23 0 -24 -2 -21 -62z"/>
</g>
</svg>
